<svg xmlns="http://www.w3.org/2000/svg" viewBox="0 0 64 64">
  <defs>
    <linearGradient id="bg" x1="0%" y1="0%" x2="100%" y2="100%">
      <stop offset="0%" stop-color="#0f172a"/>
      <stop offset="100%" stop-color="#1d4ed8"/>
    </linearGradient>
  </defs>
  <rect width="64" height="64" rx="14" fill="url(#bg)"/>
  <path d="M32 10 48 16v13c0 12-7.3 20.9-16 24-8.7-3.1-16-12-16-24V16l16-6Z" fill="#e2e8f0"/>
  <circle cx="32" cy="30" r="9" fill="#0f172a"/>
  <path d="M32 22.5a7.5 7.5 0 1 1 0 15a7.5 7.5 0 1 1 0-15Zm0 3.2a4.3 4.3 0 1 0 0 8.6a4.3 4.3 0 1 0 0-8.6Z" fill="#22c55e"/>
  <path d="M29 30.5l2.1 2.2 4-4.6" fill="none" stroke="#22c55e" stroke-linecap="round" stroke-linejoin="round" stroke-width="2.8"/>
</svg>
